<svg xmlns="http://www.w3.org/2000/svg" viewBox="0 0 124.88 136.6"><defs><style>.cls-1{fill:#8fcfd1;}.cls-2,.cls-3{font-size:15px;font-family:BrushScriptMT, Brush Script MT;}.cls-2{fill:#4a9999;}.cls-3{fill:#daf2f1;}.cls-4,.cls-6{fill:none;stroke-miterlimit:10;}.cls-4{stroke:#b7e5e5;}.cls-5{fill:#b7e5e5;}.cls-6{stroke:#4a9999;}.cls-7{fill:#232320;}</style></defs><g id="Layer_4" data-name="Layer 4"><polygon class="cls-1" points="122.25 121.73 3 121.73 62.63 2.48 62.63 2.48 122.25 121.73"/><text class="cls-2" transform="translate(20.56 81.3) rotate(-65.13)">lado 1</text><text class="cls-2" transform="matrix(0.45, 0.89, -0.89, 0.45, 90.18, 51.7)">lado 2</text><text class="cls-2" transform="translate(51.63 134.1)">base</text><text class="cls-3" transform="translate(59.41 108.21) rotate(-90)">altura</text><line class="cls-4" x1="62.63" y1="62.1" x2="62.63" y2="121.73"/><polygon class="cls-5" points="62.72 2.68 63.13 38.34 62.13 38.34 62.53 2.68 62.72 2.68"/><path class="cls-6" d="M57.8,51.91s1,4.14,4.82,4.14c4.12,0,4.83-4.14,4.83-4.14"/><path class="cls-7" d="M58.19,47c0,2.69-.45-.32-3.19-.39s-3.19,3.08-3.19.39a3.2,3.2,0,0,1,6.38,0Z"/><path class="cls-7" d="M73.44,47c0,2.69-.45-.32-3.19-.39s-3.19,3.08-3.19.39a3.2,3.2,0,0,1,6.38,0Z"/></g></svg>